/* XPM */
static const char *audio_recorder_16x16_xpm[] = {
"16 16 85 1",
" 	c None",
".	c #C7292A",
"+	c #C72A2A",
"@	c #C72929",
"#	c #C62929",
"$	c #C62A2A",
"%	c #C72B29",
"&	c #C72C2A",
"*	c #C72B2A",
"=	c #C62C29",
"-	c #C62C2A",
";	c #C72C29",
">	c #C62D29",
",	c #C72E2A",
"'	c #C72D2A",
")	c #C62E29",
"!	c #C72E29",
"~	c #C62E2A",
"{	c #C62D2A",
"]	c #C72F2A",
"^	c #C72F29",
"/	c #C73029",
"(	c #C6302A",
"_	c #C63029",
":	c #C7322A",
"<	c #C6322A",
"[	c #C73229",
"}	c #C6312A",
"|	c #C73129",
"1	c #C63129",
"2	c #C73429",
"3	c #C7342A",
"4	c #C6342A",
"5	c #C7332A",
"6	c #C7362A",
"7	c #C6362A",
"8	c #C63629",
"9	c #C7372A",
"0	c #C6372A",
"a	c #C7382A",
"b	c #C6382A",
"c	c #C63829",
"d	c #C73829",
"e	c #C7392A",
"f	c #C73A2A",
"g	c #C63A29",
"h	c #C73A29",
"i	c #C63A2A",
"j	c #C73929",
"k	c #C63D29",
"l	c #C73C2A",
"m	c #C63C2A",
"n	c #C73D29",
"o	c #C63C29",
"p	c #C6392A",
"q	c #C63E2A",
"r	c #C73E29",
"s	c #C63F29",
"t	c #C73E2A",
"u	c #C73F29",
"v	c #C7402A",
"w	c #C64029",
"x	c #C74029",
"y	c #C7412A",
"z	c #C6402A",
"A	c #C6412A",
"B	c #C6422A",
"C	c #C7432A",
"D	c #C7422A",
"E	c #C74329",
"F	c #C6432A",
"G	c #C7442A",
"H	c #C74529",
"I	c #C7452A",
"J	c #C74429",
"K	c #C64429",
"L	c #C7472A",
"M	c #C7462A",
"N	c #C6472A",
"O	c #C74729",
"P	c #C74629",
"Q	c #C6462A",
"R	c #C64729",
"S	c #C6482A",
"T	c #C6452A",
"     .++@+#     ",
"   $%&*&=--;*   ",
"  >,,')!~!,~,{  ",
" ,]^//(/](]]__, ",
" ::<[:<:}:[|:1| ",
":23434542323332:",
"3667786667887963",
"0abaabaaccbdbaa0",
"efghfiifgffiffif",
"jkllllmlllnlomlp",
"iqqrsqtttttrutsg",
" vvwxxwwyyzAyyy ",
" rBCDEFDDFDDCFn ",
"  vGGHIJJHIKHu  ",
"   yLMNOPQONy   ",
"     CIRSTC     "};
