/* XPM */
static const char *clear_16x16_xpm[] = {
"16 16 133 2",
"  	c None",
". 	c #8C6808",
"+ 	c #9F6301",
"@ 	c #906E0C",
"# 	c #956F0E",
"$ 	c #F2BD55",
"% 	c #FFDE41",
"& 	c #B1840F",
"* 	c #8C6C05",
"= 	c #8E6A0C",
"- 	c #F3C04D",
"; 	c #FFDC4B",
"> 	c #E9B300",
", 	c #E9B308",
"' 	c #593400",
") 	c #976E02",
"! 	c #9C6107",
"~ 	c #9C7500",
"{ 	c #886A00",
"] 	c #9D6B00",
"^ 	c #F3C567",
"/ 	c #FFD659",
"( 	c #DBAE00",
"_ 	c #D8AA0E",
": 	c #C29808",
"< 	c #5E4300",
"[ 	c #A06627",
"} 	c #FFFCFA",
"| 	c #E5814F",
"1 	c #FFF5FB",
"2 	c #FFF4FB",
"3 	c #9D6300",
"4 	c #FFD259",
"5 	c #E1AE14",
"6 	c #E9A802",
"7 	c #D19801",
"8 	c #5F4105",
"9 	c #926F2B",
"0 	c #FFFFF1",
"a 	c #EEC050",
"b 	c #F95D0A",
"c 	c #F08100",
"d 	c #FFEC92",
"e 	c #EBD292",
"f 	c #A56305",
"g 	c #D4A500",
"h 	c #CBA000",
"i 	c #5D3210",
"j 	c #836000",
"k 	c #84600C",
"l 	c #FCFAFD",
"m 	c #E0C341",
"n 	c #E2B700",
"o 	c #FADD00",
"p 	c #E96D00",
"q 	c #FF7807",
"r 	c #FCFA89",
"s 	c #F5D38C",
"t 	c #A05C00",
"u 	c #986D00",
"v 	c #745C30",
"w 	c #FFFEFF",
"x 	c #FBFFFF",
"y 	c #E3C139",
"z 	c #E9B100",
"A 	c #FFCE00",
"B 	c #EDAD00",
"C 	c #F4B707",
"D 	c #F87500",
"E 	c #F36511",
"F 	c #FFFF96",
"G 	c #EEE5A0",
"H 	c #9C630A",
"I 	c #543E17",
"J 	c #F8D400",
"K 	c #CB9700",
"L 	c #EDB400",
"M 	c #FFCB05",
"N 	c #E6B800",
"O 	c #E6B00F",
"P 	c #FFD300",
"Q 	c #F6BB00",
"R 	c #FC7300",
"S 	c #F78A0B",
"T 	c #FFF595",
"U 	c #88660C",
"V 	c #5E2D05",
"W 	c #FFCC0D",
"X 	c #FFD50C",
"Y 	c #E4B203",
"Z 	c #DDAD01",
"` 	c #FFD206",
" .	c #EBAD00",
"..	c #DFBD03",
"+.	c #FFEE01",
"@.	c #FB7000",
"#.	c #ED9E00",
"$.	c #986E02",
"%.	c #54320D",
"&.	c #CE9C09",
"*.	c #FFD600",
"=.	c #FDD708",
"-.	c #DEB400",
";.	c #E5BC00",
">.	c #FFF102",
",.	c #ECCA00",
"'.	c #FACD00",
").	c #FFCC13",
"!.	c #5A3100",
"~.	c #5C3400",
"{.	c #FCCB04",
"].	c #D9970D",
"^.	c #E5BD00",
"/.	c #F8ED00",
"(.	c #F4BE00",
"_.	c #F3C901",
":.	c #FBCE11",
"<.	c #5B3D00",
"[.	c #673405",
"}.	c #FCC814",
"|.	c #FFFA02",
"1.	c #E3D30E",
"2.	c #F3D500",
"3.	c #FFD402",
"4.	c #5A3400",
"5.	c #524100",
"6.	c #E8D21D",
"7.	c #FBD900",
"8.	c #FDCE02",
"9.	c #45402C",
"0.	c #533F00",
"a.	c #5A3C00",
"b.	c #5E3306",
"                        . + @   ",
"                      # $ % & * ",
"                    = - ; > , ' ",
"          ) ! ~ { ] ^ / ( _ : < ",
"        [ } | 1 2 3 4 5 6 7 8   ",
"      9 0 a b c d e f g h i     ",
"  j k l m n o p q r s t u       ",
"v w x y z A B C D E F G H       ",
"I J K L M N O P Q R S T U       ",
"  V W X Y Z `  ...+.@.#.$.      ",
"    %.&.*.=.-.;.>.,.'.).!.      ",
"      ~.{.].^./.(._.:.<.        ",
"        [.}.|.1.2.3.4.          ",
"          5.6.7.8.9.            ",
"            0.a.b.              ",
"                                "};
