/* XPM */
static const char * close_16x16_xpm[] = {
"16 16 80 1",
" 	c None",
".	c #F4BFB2",
"+	c #EC8D76",
"@	c #EA8167",
"#	c #E8765B",
"$	c #E77054",
"%	c #E66C4F",
"&	c #E6694A",
"*	c #E5694B",
"=	c #E56546",
"-	c #E3603F",
";	c #E35D3B",
">	c #E25431",
",	c #D84723",
"'	c #DE9B8A",
")	c #EC8E77",
"!	c #E46241",
"~	c #DB522F",
"{	c #BA3919",
"]	c #EA856B",
"^	c #E35C3A",
"/	c #FFFFFF",
"(	c #DC5330",
"_	c #BC3E1E",
":	c #E8795E",
"<	c #E15330",
"[	c #BD4223",
"}	c #E76F53",
"|	c #DC512D",
"1	c #BE4223",
"2	c #DC502A",
"3	c #BF4121",
"4	c #E56445",
"5	c #DE4E25",
"6	c #BF3F1D",
"7	c #E45F3F",
"8	c #DF4C1F",
"9	c #C03C18",
"0	c #E25835",
"a	c #E04818",
"b	c #C23812",
"c	c #E1512C",
"d	c #E1430F",
"e	c #C1330B",
"f	c #DF4822",
"g	c #E9480E",
"h	c #E13E08",
"i	c #C12E05",
"j	c #DE4119",
"k	c #E8430A",
"l	c #E03904",
"m	c #BE2B02",
"n	c #D43811",
"o	c #D9441F",
"p	c #DA4D2A",
"q	c #DA512F",
"r	c #DB512E",
"s	c #DB512C",
"t	c #DC5129",
"u	c #DF4F24",
"v	c #E04B1C",
"w	c #E04715",
"x	c #E0420D",
"y	c #E03A05",
"z	c #D73201",
"A	c #B52600",
"B	c #DC9685",
"C	c #B5300F",
"D	c #B83616",
"E	c #B8391A",
"F	c #B7391A",
"G	c #BB3918",
"H	c #B93917",
"I	c #BD3713",
"J	c #C0350D",
"K	c #C0320A",
"L	c #BE2F07",
"M	c #C02C02",
"N	c #B62600",
"O	c #D1907F",
"                ",
" .+@#$%&*=-;>,' ",
" )!!!!!!!!!!!~{ ",
" ]^//^^^^^^//(_ ",
" :<///<<<<///~[ ",
" }||///||///||1 ",
" %222//////2223 ",
" 45555////55556 ",
" 78888////88889 ",
" 0aaa//////aaab ",
" cdd///dd///dde ",
" fg///gggg///hi ",
" jk//kkkkkk//lm ",
" nopqrstuvwxyzA ",
" BCDEFGHIJKLMNO ",
"                "};
