/* XPM */
static const char * error_16x16_xpm[] = {
"16 16 145 2",
"  	c None",
". 	c #BBB6B7",
"+ 	c #DBD2D2",
"@ 	c #F5F0F0",
"# 	c #DCD2D2",
"$ 	c #BBB7B8",
"% 	c #C3C3C3",
"& 	c #F4EAEA",
"* 	c #EDCDCD",
"= 	c #D48F8F",
"- 	c #C15D5D",
"; 	c #C16060",
"> 	c #D69292",
", 	c #EED0D0",
"' 	c #F4EBEB",
") 	c #F9EEEE",
"! 	c #D38E8E",
"~ 	c #B85353",
"{ 	c #AF3232",
"] 	c #B43E3E",
"^ 	c #B33F3F",
"/ 	c #B43D3D",
"( 	c #BD6060",
"_ 	c #D69595",
": 	c #FAF0F0",
"< 	c #DBB1B1",
"[ 	c #FAF9F9",
"} 	c #BF6969",
"| 	c #B03434",
"1 	c #B53C3C",
"2 	c #C28282",
"3 	c #E4E7E7",
"4 	c #C68E8E",
"5 	c #D79898",
"6 	c #F5EDEC",
"7 	c #BBB7B7",
"8 	c #EDCFCF",
"9 	c #B74D4D",
"0 	c #ECE3E3",
"a 	c #FFFFFF",
"b 	c #FAF8F8",
"c 	c #C36B6B",
"d 	c #C27C7C",
"e 	c #E2E4E4",
"f 	c #F6F8F8",
"g 	c #D6C7C6",
"h 	c #BD5959",
"i 	c #F1D8D8",
"j 	c #BCB8B9",
"k 	c #D69393",
"l 	c #B23838",
"m 	c #BC5F5F",
"n 	c #ECE2E2",
"o 	c #FBFDFD",
"p 	c #F2F1F1",
"q 	c #E9E9E9",
"r 	c #EFF1F1",
"s 	c #C3ACAB",
"t 	c #9E2020",
"u 	c #A61919",
"v 	c #D38D8D",
"w 	c #DCD3D3",
"x 	c #F5F1F1",
"y 	c #C46767",
"z 	c #B94B4B",
"A 	c #AC2B2B",
"B 	c #A83030",
"C 	c #E7E3E3",
"D 	c #FCFDFD",
"E 	c #F8F9F9",
"F 	c #DDD3D3",
"G 	c #950908",
"H 	c #9C0000",
"I 	c #9D0000",
"J 	c #B13838",
"K 	c #F4EEEE",
"L 	c #C56A6B",
"M 	c #A82222",
"N 	c #980000",
"O 	c #A74C4C",
"P 	c #EDEDED",
"Q 	c #F8F8F8",
"R 	c #FAFAFA",
"S 	c #F4F2F1",
"T 	c #AF3A3A",
"U 	c #A40000",
"V 	c #AE0606",
"W 	c #BF3939",
"X 	c #F5EEEE",
"Y 	c #DCD3D4",
"Z 	c #CD7F7F",
"` 	c #970000",
" .	c #AB5858",
"..	c #D5D8D8",
"+.	c #F8FAFA",
"@.	c #D0BFBF",
"#.	c #D1C4C1",
"$.	c #FAFFFD",
"%.	c #FBF8F8",
"&.	c #C24646",
"*.	c #BB0303",
"=.	c #DE7777",
"-.	c #DDCFCF",
";.	c #BBB5B7",
">.	c #E7C1C1",
",.	c #A11D1D",
"'.	c #D5D5D5",
").	c #F3F5F5",
"!.	c #BFA9A9",
"~.	c #950C0C",
"{.	c #A62826",
"].	c #EBD7D6",
"^.	c #E7C5C5",
"/.	c #CA1E1E",
"(.	c #F6CACA",
"_.	c #BCB6B7",
":.	c #F9F9F9",
"<.	c #C67373",
"[.	c #9F4545",
"}.	c #BFA4A4",
"|.	c #981212",
"1.	c #9E0000",
"2.	c #A20000",
"3.	c #BB3131",
"4.	c #E1AEAE",
"5.	c #CD4D4D",
"6.	c #EC8D8D",
"7.	c #F7EAEA",
"8.	c #C57373",
"9.	c #9B0C0C",
"0.	c #AB0505",
"a.	c #B90101",
"b.	c #C71616",
"c.	c #EB8A8A",
"d.	c #FEF1F1",
"e.	c #E8C3C3",
"f.	c #C97272",
"g.	c #B03838",
"h.	c #BA3838",
"i.	c #DB7676",
"j.	c #F5C8C8",
"k.	c #F8EBEB",
"l.	c #BAB5B6",
"m.	c #DACFCF",
"n.	c #DCCFCF",
"                                ",
"          . + @ @ # $           ",
"      % & * = - ; > , ' %       ",
"    % ) ! ~ { ] ^ / ( _ : %     ",
"    & ! < [ } | 1 2 3 4 5 6     ",
"  7 8 9 0 a b c d e f g h i j   ",
"  + k l m n o p q r s t u v w   ",
"  x y z A B C D E F G H I J K   ",
"  x L M N O P Q R S T U V W X   ",
"  Y Z `  ...+.@.#.$.%.&.*.=.-.  ",
"  ;.>.,.'.).!.~.{.].a ^./.(._.  ",
"    :.<.[.}.|.1.2.3.4.5.6.:.    ",
"    % 7.8.9.H 1.0.a.b.c.d.%     ",
"      % :.e.f.g.h.i.j.k.%       ",
"          l.m.K X n._.          ",
"                                "};
