/* XPM */
static const char * file_audio_16x16_xpm[] = {
"16 16 2 1",
" 	c None",
".	c #7FA3FF",
"                ",
"                ",
"        .       ",
"        ..      ",
"        ...     ",
"        ....    ",
"        . ...   ",
"        .  ..   ",
"        .  ..   ",
"        .  .    ",
"        .       ",
"    .....       ",
"   ......       ",
"   ......       ",
"    ....        ",
"                "};
