/* XPM */
static const char * file_new_16x16_xpm[] = {
"16 16 50 1",
" 	c None",
".	c #43A6F7",
"+	c #666666",
"@	c #D6E7FD",
"#	c #6E7BAE",
"$	c #C4DEFB",
"%	c #B5D5FA",
"&	c #9DADD9",
"*	c #BAC9F4",
"=	c #EAF3FE",
"-	c #A5BDEE",
";	c #AAB3F5",
">	c #77B3EA",
",	c #4192E0",
"'	c #84A3D6",
")	c #E0EEFD",
"!	c #7C95C8",
"~	c #809CCF",
"{	c #F7FAFF",
"]	c #CFE4FC",
"^	c #BBD8FA",
"/	c #7588BB",
"(	c #99A1CC",
"_	c #88ABDE",
":	c #CCD5FF",
"<	c #9999CC",
"[	c #AFC3F0",
"}	c #E5F0FE",
"|	c #BDD6FF",
"1	c #AED0FA",
"2	c #F7FFFF",
"3	c #98A6D3",
"4	c #DBEAFC",
"5	c #798FC2",
"6	c #9599C4",
"7	c #9396C1",
"8	c #B5D6FF",
"9	c #F0F6FE",
"0	c #CBE1FC",
"a	c #7282B5",
"b	c #BFDBFA",
"c	c #FFFFFF",
"d	c #7E88B3",
"e	c #BDDEFF",
"f	c #8CADDE",
"g	c #B5C8F2",
"h	c #ADBDEF",
"i	c #BDCDF3",
"j	c #8B91B6",
"k	c #9AA8D6",
"                ",
"  _______'_+    ",
"  _2222999_>+   ",
"  _222999}..,+  ",
"  _{{99==)::;d+ ",
"  _999=}})444*+ ",
"  _9==}})444]i+ ",
"  _==}))4@@]]*+ ",
"  '))444]]]$$g+ ",
"  ~4444]]]$$b[+ ",
"  !@@@]]]$$$^[+ ",
"  5@@]]$$$^^^[+ ",
"  /]]]$$$^^%%-+ ",
"  a00$$bbb%%1-+ ",
"  #&kkk((667jj+ ",
"   ++++++++++++ "};
