/* XPM */
static const char * info_16x16_xpm[] = {
"16 16 156 2",
"  	c None",
". 	c #F3F4F5",
"+ 	c #EBEDF0",
"@ 	c #FBFBFC",
"# 	c #FFFFFF",
"$ 	c #F7F7F8",
"% 	c #E7EBF0",
"& 	c #E4E9ED",
"* 	c #F4F6F7",
"= 	c #F4F5F7",
"- 	c #EBEDEE",
"; 	c #F3F3F6",
"> 	c #FDFCFC",
", 	c #D5D8E0",
"' 	c #8F90A5",
") 	c #E5E7ED",
"! 	c #FCFCFD",
"~ 	c #F0F4F6",
"{ 	c #E4EBF1",
"] 	c #E8EBF1",
"^ 	c #F2F4F7",
"/ 	c #E5E7EB",
"( 	c #FAFAFB",
"_ 	c #485E92",
": 	c #00006D",
"< 	c #7A90BF",
"[ 	c #F6F9FD",
"} 	c #D4DFEA",
"| 	c #DCE0E8",
"1 	c #F5F7F9",
"2 	c #DADFE6",
"3 	c #F5F9FA",
"4 	c #F9FCFF",
"5 	c #F0F7FF",
"6 	c #D1DDEE",
"7 	c #93B7ED",
"8 	c #DEECFB",
"9 	c #EEF8FF",
"0 	c #E8F4FF",
"a 	c #F5FCFF",
"b 	c #EEF7FD",
"c 	c #B9C9DA",
"d 	c #DBDEE5",
"e 	c #D4DAE3",
"f 	c #E0E5EC",
"g 	c #F4FBFF",
"h 	c #ECF6FF",
"i 	c #F0FBFF",
"j 	c #C2D1E3",
"k 	c #8D9BBE",
"l 	c #939FBB",
"m 	c #B4C3D9",
"n 	c #E9F8FF",
"o 	c #E0EFFF",
"p 	c #E9FAFF",
"q 	c #CCDEF0",
"r 	c #9CAABF",
"s 	c #F8F8F9",
"t 	c #BEC7D4",
"u 	c #DCE6F1",
"v 	c #E8F6FF",
"w 	c #E3F1FF",
"x 	c #E7F5FF",
"y 	c #CFDDEB",
"z 	c #274B99",
"A 	c #000072",
"B 	c #6985B9",
"C 	c #EFFDFF",
"D 	c #D7EBFF",
"E 	c #D1E7F9",
"F 	c #7D8FAA",
"G 	c #6F83A1",
"H 	c #B4C2CE",
"I 	c #D1E0F0",
"J 	c #E0F0FF",
"K 	c #D9EBFF",
"L 	c #F2FFFF",
"M 	c #819ECA",
"N 	c #000E81",
"O 	c #6F8CC5",
"P 	c #E4F7FF",
"Q 	c #CEE7FF",
"R 	c #C9E1F7",
"S 	c #ABBCCD",
"T 	c #C3D4E6",
"U 	c #D9EDFF",
"V 	c #D3E9FF",
"W 	c #E1F8FF",
"X 	c #7392C4",
"Y 	c #001080",
"Z 	c #6C8BC4",
"` 	c #DCF5FF",
" .	c #C7E5FF",
"..	c #B6D2ED",
"+.	c #5F7598",
"@.	c #CCD4E1",
"#.	c #ABBCD0",
"$.	c #C8E0F9",
"%.	c #CDEAFF",
"&.	c #C8E5FF",
"*.	c #DDF8FF",
"=.	c #7796C7",
"-.	c #000879",
";.	c #6C8CC4",
">.	c #D9F7FF",
",.	c #BFE0FF",
"'.	c #B8D7F6",
").	c #8AA7C9",
"!.	c #4A5B80",
"~.	c #A5B9CC",
"{.	c #A2B9D2",
"].	c #C1DEF9",
"^.	c #C9EAFF",
"/.	c #BFDFF2",
"(.	c #365FAA",
"_.	c #0B2DA1",
":.	c #365CB0",
"<.	c #B2D3EF",
"[.	c #BFE6FF",
"}.	c #B2D2F3",
"|.	c #9ABCD9",
"1.	c #3E5A84",
"2.	c #8F97AD",
"3.	c #93A8C1",
"4.	c #94AECB",
"5.	c #AFCEEA",
"6.	c #A2C3E7",
"7.	c #83AADF",
"8.	c #96C2F3",
"9.	c #90BAEF",
"0.	c #9BBFEA",
"a.	c #AACCEA",
"b.	c #86A9CC",
"c.	c #3F5C86",
"d.	c #636F8B",
"e.	c #90A1B8",
"f.	c #758EAD",
"g.	c #7495B7",
"h.	c #8DAECB",
"i.	c #A5C7E5",
"j.	c #ADD2F3",
"k.	c #81A2C6",
"l.	c #506F95",
"m.	c #3C527B",
"n.	c #77809A",
"o.	c #9AA4B9",
"p.	c #576B8D",
"q.	c #779BC0",
"r.	c #9AC7EF",
"s.	c #405B84",
"t.	c #757D95",
"u.	c #6A81A5",
"v.	c #7EAEDA",
"w.	c #647BA0",
"x.	c #869EBE",
"y.	c #687B9C",
"        . + @ # $ % & *         ",
"    = - ; > , ' ) ! ~ { ]       ",
"  ^ / ( # # _ : < # # [ } |     ",
"1 2 3 4 5 # 6 7 8 9 0 a b c d   ",
"e f g h i j k l m n o o p q r s ",
"t u v w x y z A B C D D D E F G ",
"H I J J K L M N O P Q Q Q R G G ",
"S T U V V W X Y Z `  . . ...+.G ",
"@.#.$.%.&.*.=.-.;.>.,.,.'.).!.  ",
"  ~.{.].^./.(._.:.<.[.}.|.1.2.  ",
"    3.4.5.6.7.8.9.0.a.b.c.d.    ",
"      e.f.g.h.i.j.k.l.m.n.      ",
"          o.p.q.r.s.t.          ",
"              u.v.w.            ",
"                x.y.            ",
"                                "};
