/* XPM */
static const char * pause_16x16_xpm[] = {
"16 16 142 2",
"  	c None",
". 	c #0E579F",
"+ 	c #226DB3",
"@ 	c #106BB0",
"# 	c #1D70B2",
"$ 	c #3C79B2",
"% 	c #3E7BB3",
"& 	c #3A79B2",
"* 	c #3576B0",
"= 	c #3E7CB4",
"- 	c #319DD8",
"; 	c #349FD9",
"> 	c #359FDA",
", 	c #40A4DC",
"' 	c #63B5E3",
") 	c #92CDEC",
"! 	c #3D78B0",
"~ 	c #45A2D8",
"{ 	c #4BAADE",
"] 	c #4CA9DD",
"^ 	c #4BA9DD",
"/ 	c #47A7DC",
"( 	c #3DA2DA",
"_ 	c #5FB2E0",
": 	c #A0D4F0",
"< 	c #61ADDA",
"[ 	c #6EBCE7",
"} 	c #6BBAE5",
"| 	c #66B7E4",
"1 	c #69B8E4",
"2 	c #6AB9E4",
"3 	c #61B3E2",
"4 	c #3B77B0",
"5 	c #3B7CB4",
"6 	c #397AB3",
"7 	c #94B9D8",
"8 	c #5BA4D4",
"9 	c #71BFE9",
"0 	c #A3D5F1",
"a 	c #6BBAE6",
"b 	c #66B7E3",
"c 	c #93CEEE",
"d 	c #3C77B1",
"e 	c #3E81B8",
"f 	c #357AB5",
"g 	c #FFFFFF",
"h 	c #549BCD",
"i 	c #73C1EB",
"j 	c #6CBBE7",
"k 	c #91CDEE",
"l 	c #4079B3",
"m 	c #4487BD",
"n 	c #3B81B9",
"o 	c #93BAD9",
"p 	c #5498CB",
"q 	c #79C4EC",
"r 	c #A6D8F3",
"s 	c #74C0E9",
"t 	c #72BEE7",
"u 	c #93CFEF",
"v 	c #286CAD",
"w 	c #327FBA",
"x 	c #337FB9",
"y 	c #91BADA",
"z 	c #5196C8",
"A 	c #7AC3EC",
"B 	c #AADAF5",
"C 	c #6EBDE9",
"D 	c #65B9E6",
"E 	c #81C7EC",
"F 	c #1867AD",
"G 	c #146EB1",
"H 	c #7DAFD4",
"I 	c #2E80BE",
"J 	c #5BB2E3",
"K 	c #9BD5F4",
"L 	c #54B3E5",
"M 	c #4FAEE2",
"N 	c #6DBDE9",
"O 	c #2174B8",
"P 	c #1974B6",
"Q 	c #1370B4",
"R 	c #7DB1D6",
"S 	c #2A80BF",
"T 	c #4FA8DD",
"U 	c #96D2F3",
"V 	c #53B1E4",
"W 	c #50AEE2",
"X 	c #68BBE8",
"Y 	c #257CBE",
"Z 	c #1C7CBD",
"` 	c #1474B8",
" .	c #84B6DA",
"..	c #2D85C3",
"+.	c #45A0D7",
"@.	c #93D0F1",
"#.	c #4EAEE3",
"$.	c #4DACE1",
"%.	c #5FB6E5",
"&.	c #257BBE",
"*.	c #2087C6",
"=.	c #348DC9",
"-.	c #429CD4",
";.	c #4DADE1",
">.	c #49A9DF",
",.	c #52AFE2",
"'.	c #218CCB",
").	c #2181C1",
"!.	c #2284C3",
"~.	c #2184C4",
"{.	c #2F8DC9",
"].	c #3893CD",
"^.	c #3F9AD2",
"/.	c #4CACE1",
"(.	c #46A9E0",
"_.	c #4AABE1",
":.	c #4BABE0",
"<.	c #45A8DE",
"[.	c #45A9E0",
"}.	c #1B70B4",
"|.	c #1878BA",
"1.	c #1C79BB",
"2.	c #207BBB",
"3.	c #247DBD",
"4.	c #2780BE",
"5.	c #2B83C1",
"6.	c #338EC9",
"7.	c #348ECA",
"8.	c #338DC9",
"9.	c #318DC9",
"0.	c #2E8BC8",
"a.	c #2D8CC9",
"b.	c #1169AC",
"c.	c #1365AA",
"d.	c #1468AC",
"e.	c #166AAD",
"f.	c #186CAE",
"g.	c #1A6CAF",
"h.	c #1C6FB1",
"i.	c #1A6DB0",
"j.	c #196DAF",
"k.	c #186CAF",
"  . . . . . . . . . + + + @ #   ",
". . $ % & * = - ; > > , ' ) # # ",
". ! $ % & * = ~ { ] ^ / ( _ : # ",
". ! $ % & * = < [ } | 1 2 3 : # ",
". 4 5 6 7 7 7 8 9 0 0 0 a b c # ",
". d e f 7 g 7 h i 0 g 0 j a k # ",
". l m n o g o p q r g r s t u # ",
". v w x y g y z A B g B C D E # ",
". F G @ H g H I J K g K L M N # ",
". O P Q R g R S T U g U V W X # ",
". Y Z `  .g  ...+.@.g @.#.$.%.# ",
". &.*.Z 7 7 7 =.-.0 0 0 ;.>.,.# ",
". + '.).!.~.{.].^./.(._.:.<.[.# ",
". }.}.|.1.2.3.4.5.6.7.8.9.0.a.b.",
". . }.|.1.2.3.4.5.6.7.8.9.0.a.b.",
"  c.d.e.f.g.# h.i.j.k.b.j.k.b.  "};
