/* XPM */
static const char * pause_hover_16x16_xpm[] = {
"16 16 29 1",
" 	c None",
".	c #0E579F",
"+	c #226DB3",
"@	c #106BB0",
"#	c #1D70B2",
"$	c #FFFFFF",
"%	c #94B9D8",
"&	c #A3D5F1",
"*	c #93BAD9",
"=	c #A6D8F3",
"-	c #91BADA",
";	c #AADAF5",
">	c #7DAFD4",
",	c #9BD5F4",
"'	c #7DB1D6",
")	c #96D2F3",
"!	c #84B6DA",
"~	c #93D0F1",
"{	c #1169AC",
"]	c #2D8CC9",
"^	c #1365AA",
"/	c #1468AC",
"(	c #166AAD",
"_	c #186CAE",
":	c #1A6CAF",
"<	c #1C6FB1",
"[	c #1A6DB0",
"}	c #196DAF",
"|	c #186CAF",
" .........+++@# ",
"..$$$$$$$$$$$$##",
".$$$$$$$$$$$$$$#",
".$$$$$$$$$$$$$$#",
".$$$%%%$$&&&$$$#",
".$$$%.%$$&.&$$$#",
".$$$*.*$$=.=$$$#",
".$$$-.-$$;.;$$$#",
".$$$>.>$$,.,$$$#",
".$$$'.'$$).)$$$#",
".$$$!.!$$~.~$$$#",
".$$$%%%$$&&&$$$#",
".$$$$$$$$$$$$$$#",
".$$$$$$$$$$$$$${",
"..$$$$$$$$$$$$]{",
" ^/(_:#<[}|{}|{ "};
