/* XPM */
static const char * play_hover_16x16_xpm[] = {
"16 16 23 1",
" 	c None",
".	c #0E579F",
"+	c #226DB3",
"@	c #106BB0",
"#	c #1D70B2",
"$	c #FFFFFF",
"%	c #4C85B9",
"&	c #A1CBE7",
"*	c #A2D5F2",
"=	c #91CFF1",
"-	c #87BADD",
";	c #368FC9",
">	c #1169AC",
",	c #2D8CC9",
"'	c #1365AA",
")	c #1468AC",
"!	c #166AAD",
"~	c #186CAE",
"{	c #1A6CAF",
"]	c #1C6FB1",
"^	c #1A6DB0",
"/	c #196DAF",
"(	c #186CAF",
" .........+++@# ",
"..$$$$$$$$$$$$##",
".$$$$$$$$$$$$$$#",
".$$$%$$$$$$$$$$#",
".$$$..&$$$$$$$$#",
".$$$...&$$$$$$$#",
".$$$.....*$$$$$#",
".$$$.......$$$$#",
".$$$.......$$$$#",
".$$$.....=$$$$$#",
".$$$...-$$$$$$$#",
".$$$..&$$$$$$$$#",
".$$$;$$$$$$$$$$#",
".$$$$$$$$$$$$$$>",
"..$$$$$$$$$$$$,>",
" ')!~{#]^/(>/(> "};
