/* XPM */
static const char * play_16x16_xpm[] = {
"16 16 162 2",
"  	c None",
". 	c #0E579F",
"+ 	c #226DB3",
"@ 	c #106BB0",
"# 	c #1D70B2",
"$ 	c #3C79B2",
"% 	c #3E7BB3",
"& 	c #3A79B2",
"* 	c #3576B0",
"= 	c #3E7CB4",
"- 	c #319DD8",
"; 	c #349FD9",
"> 	c #359FDA",
", 	c #40A4DC",
"' 	c #63B5E3",
") 	c #92CDEC",
"! 	c #3D78B0",
"~ 	c #1A60A2",
"{ 	c #1C62A3",
"] 	c #2169A9",
"^ 	c #45A2D8",
"/ 	c #4BAADE",
"( 	c #4CA9DD",
"_ 	c #4BA9DD",
": 	c #47A7DC",
"< 	c #3DA2DA",
"[ 	c #5FB2E0",
"} 	c #A0D4F0",
"| 	c #4C85B9",
"1 	c #3979B2",
"2 	c #3D7BB3",
"3 	c #61ADDA",
"4 	c #6EBCE7",
"5 	c #6EBBE6",
"6 	c #6CBAE5",
"7 	c #6AB8E4",
"8 	c #61B3E2",
"9 	c #3B77B0",
"0 	c #3B7CB4",
"a 	c #397AB3",
"b 	c #B9D0E5",
"c 	c #B2CCE2",
"d 	c #4F89BB",
"e 	c #54A0D2",
"f 	c #72C0E9",
"g 	c #73BFE8",
"h 	c #72BDE7",
"i 	c #6FBBE6",
"j 	c #66B7E3",
"k 	c #93CEEE",
"l 	c #3C77B1",
"m 	c #3E81B8",
"n 	c #357AB5",
"o 	c #C1D7E8",
"p 	c #FFFFFF",
"q 	c #EAF1F7",
"r 	c #A1CBE7",
"s 	c #78C2EB",
"t 	c #74C0EA",
"u 	c #7AC3EA",
"v 	c #79C2EA",
"w 	c #74BFE8",
"x 	c #6BBAE6",
"y 	c #91CDEE",
"z 	c #4079B3",
"A 	c #4487BD",
"B 	c #3B81B9",
"C 	c #C0D7E9",
"D 	c #E2F2FB",
"E 	c #A2D5F2",
"F 	c #7CC5ED",
"G 	c #7CC4EC",
"H 	c #7BC3EB",
"I 	c #72BEE7",
"J 	c #93CFEF",
"K 	c #286CAD",
"L 	c #327FBA",
"M 	c #337FB9",
"N 	c #BFD7E9",
"O 	c #DCF0FB",
"P 	c #92CFF0",
"Q 	c #72BFEA",
"R 	c #65B9E6",
"S 	c #81C7EC",
"T 	c #1867AD",
"U 	c #146EB1",
"V 	c #B3D0E6",
"W 	c #D3ECFA",
"X 	c #7CC6EE",
"Y 	c #5AB5E6",
"Z 	c #4FAEE2",
"` 	c #6DBDE9",
" .	c #2174B8",
"..	c #1974B6",
"+.	c #1370B4",
"@.	c #B4D2E8",
"#.	c #DCEFFA",
"$.	c #91CFF1",
"%.	c #63BBEA",
"&.	c #60B8E9",
"*.	c #5CB5E6",
"=.	c #50AEE2",
"-.	c #68BBE8",
";.	c #257CBE",
">.	c #1C7CBD",
",.	c #1474B8",
"'.	c #B8D5EA",
").	c #E9F3F9",
"!.	c #87BADD",
"~.	c #4EA4D9",
"{.	c #5AB6E8",
"].	c #61B8E8",
"^.	c #5DB6E7",
"/.	c #57B3E4",
"(.	c #4DACE1",
"_.	c #5FB6E5",
":.	c #257BBE",
"<.	c #2087C6",
"[.	c #B0D2E9",
"}.	c #ABD0E8",
"|.	c #4395CC",
"1.	c #2C88C6",
"2.	c #439CD4",
"3.	c #59B4E6",
"4.	c #58B3E5",
"5.	c #56B1E4",
"6.	c #51AEE2",
"7.	c #49A9DF",
"8.	c #52AFE2",
"9.	c #218CCB",
"0.	c #2181C1",
"a.	c #368FC9",
"b.	c #2686C5",
"c.	c #2D8CC9",
"d.	c #3892CD",
"e.	c #3F99D2",
"f.	c #4EADE1",
"g.	c #4AABE0",
"h.	c #45A8DE",
"i.	c #45A9E0",
"j.	c #1B70B4",
"k.	c #1878BA",
"l.	c #1C79BB",
"m.	c #207BBB",
"n.	c #247DBD",
"o.	c #2780BE",
"p.	c #2B83C1",
"q.	c #338EC9",
"r.	c #348ECA",
"s.	c #338DC9",
"t.	c #318DC9",
"u.	c #2E8BC8",
"v.	c #1169AC",
"w.	c #1365AA",
"x.	c #1468AC",
"y.	c #166AAD",
"z.	c #186CAE",
"A.	c #1A6CAF",
"B.	c #1C6FB1",
"C.	c #1A6DB0",
"D.	c #196DAF",
"E.	c #186CAF",
"  . . . . . . . . . + + + @ #   ",
". . $ % & * = - ; > > , ' ) # # ",
". ! $ % ~ { ] ^ / ( _ : < [ } # ",
". ! $ % | 1 2 3 4 5 5 6 7 8 } # ",
". 9 0 a b c d e f g g h i j k # ",
". l m n o p q r s t u v w x y # ",
". z A B C p p p D E F G H I J # ",
". K L M N p p p p p O P Q R S # ",
". T U @ V p p p p p W X Y Z ` # ",
".  ...+.@.p p p #.$.%.&.*.=.-.# ",
". ;.>.,.'.p ).!.~.{.].^./.(._.# ",
". :.<.>.[.}.|.1.2.3.4.5.6.7.8.# ",
". + 9.0.a.b.c.d.e.f.Z f.g.h.i.# ",
". j.j.k.l.m.n.o.p.q.r.s.t.u.c.v.",
". . j.k.l.m.n.o.p.q.r.s.t.u.c.v.",
"  w.x.y.z.A.# B.C.D.E.v.D.E.v.  "};
