/* XPM */
static const char * record_16x16_xpm[] = {
"16 16 80 1",
" 	c None",
".	c #A00808",
"+	c #CB1F1F",
"@	c #DC2425",
"#	c #DC2424",
"$	c #DC2524",
"%	c #DD2C2D",
"&	c #DD2D2C",
"*	c #DC2C2C",
"=	c #DD2C2C",
"-	c #DC2C2D",
";	c #DC2D2C",
">	c #DC3534",
",	c #DD3435",
"'	c #DD3434",
")	c #DD3534",
"!	c #DD3D3D",
"~	c #DD3C3C",
"{	c #DD3D3C",
"]	c #DE4343",
"^	c #ED9898",
"/	c #FFFFFF",
"(	c #FEFEFE",
"_	c #ED9797",
":	c #DE4242",
"<	c #DD3B3C",
"[	c #DE4545",
"}	c #DE4544",
"|	c #DD4444",
"1	c #DE4A4B",
"2	c #DE4A4A",
"3	c #DE4C4C",
"4	c #DE4D4C",
"5	c #DD4D4D",
"6	c #EDA0A0",
"7	c #DD4C4C",
"8	c #DE5455",
"9	c #DE5555",
"0	c #DE5454",
"a	c #DF5C5D",
"b	c #DF5C5C",
"c	c #DF5D5C",
"d	c #DE5C5C",
"e	c #DF6565",
"f	c #EEACAD",
"g	c #EEACAC",
"h	c #DF6464",
"i	c #DE6564",
"j	c #E06D6D",
"k	c #DF6D6D",
"l	c #E07271",
"m	c #E07171",
"n	c #DF6C6D",
"o	c #E06C6D",
"p	c #E06C6C",
"q	c #E07574",
"r	c #E07575",
"s	c #E07475",
"t	c #E07978",
"u	c #EEB5B5",
"v	c #E07879",
"w	c #DF7475",
"x	c #E07474",
"y	c #E07D7D",
"z	c #E07C7D",
"A	c #E07D7C",
"B	c #E07C7C",
"C	c #E08585",
"D	c #E18585",
"E	c #E08584",
"F	c #E08485",
"G	c #E18584",
"H	c #E08484",
"I	c #E18D8D",
"J	c #E08D8D",
"K	c #E18C8D",
"L	c #E18D8C",
"M	c #E08C8D",
"N	c #E18C8C",
"O	c #D05151",
" .........+++++ ",
"..@#$###@##@$$++",
".%&*=--**;*=***+",
".>,'',)''''''''+",
".!~~{]^/(_:~~~<+",
".[}|1(////(2|||+",
".3456//////6473+",
".889(//////(000+",
".abc(//////(bbd+",
".eeef//////ghih+",
".jkkl(////(mnop+",
".qqrstu/(uvwxsq+",
".yyzyyzzAABBBzA+",
".CCDDCEFECGDEHE+",
"..IIIIJJKLJIMNO+",
" ++++++++++++++ "};
