/* XPM */
static const char * record_hover_16x16_xpm[] = {
"16 16 13 1",
" 	c None",
".	c #A00808",
"+	c #CD2727",
"@	c #FFFFFF",
"#	c #ED9898",
"$	c #D72D2D",
"%	c #ED9797",
"&	c #EDA0A0",
"*	c #EEACAD",
"=	c #EEACAC",
"-	c #EEB5B5",
";	c #D05151",
">	c #CB1F1F",
" .........+++++ ",
"..@@@@@@@@@@@@++",
".@@@@@@@@@@@@@@+",
".@@@@@@@@@@@@@@+",
".@@@@@#$$%@@@@@+",
".@@@@$$$$$$@@@@+",
".@@@&$$$$$$&@@@+",
".@@@$$$$$$$$@@@+",
".@@@$$$$$$$$@@@+",
".@@@*$$$$$$=@@@+",
".@@@@$$$$$$@@@@+",
".@@@@@-$$-@@@@@+",
".@@@@@@@@@@@@@@+",
".@@@@@@@@@@@@@@+",
"..@@@@@@@@@@@@;+",
" >>>>>>>>>>>>>> "};
