/* XPM */
static const char * save_hover_16x16_xpm[] = {
"16 16 11 1",
" 	c None",
".	c #000000",
"+	c #B8AFAF",
"@	c #D72D2D",
"#	c #808080",
"$	c #FFFFFF",
"%	c #BFBFBF",
"&	c #333333",
"*	c #D7D7D7",
"=	c #EEEEEE",
"-	c #E6E6E6",
"                ",
" .............. ",
" .+@@@@@@@@@@+. ",
" ..#$$$$$$$$#.. ",
" .+#%%%%%%%%#+. ",
" .+#$$$$$$$$#+. ",
" .+#%%%%%%%%#+. ",
" .+##########+. ",
" .++++++++++++. ",
" .++++++++++++. ",
" .+++######+++. ",
" .+++#&%**#+++. ",
" .+#+#&*=%#+++. ",
" .+++#*-*%#+++. ",
"  ............. ",
"                "};
