/* XPM */
static const char * stop_16x16_xpm[] = {
"16 16 141 2",
"  	c None",
". 	c #0E579F",
"+ 	c #226DB3",
"@ 	c #106BB0",
"# 	c #1D70B2",
"$ 	c #3C79B2",
"% 	c #3E7BB3",
"& 	c #3A79B2",
"* 	c #3576B0",
"= 	c #3E7CB4",
"- 	c #319DD8",
"; 	c #349FD9",
"> 	c #359FDA",
", 	c #40A4DC",
"' 	c #63B5E3",
") 	c #92CDEC",
"! 	c #3D78B0",
"~ 	c #45A2D8",
"{ 	c #4BAADE",
"] 	c #4CA9DD",
"^ 	c #4BA9DD",
"/ 	c #47A7DC",
"( 	c #3DA2DA",
"_ 	c #5FB2E0",
": 	c #A0D4F0",
"< 	c #61ADDA",
"[ 	c #6EBCE7",
"} 	c #6BBAE5",
"| 	c #66B7E4",
"1 	c #69B8E4",
"2 	c #6AB9E4",
"3 	c #61B3E2",
"4 	c #3B77B0",
"5 	c #3B7CB4",
"6 	c #397AB3",
"7 	c #5F94C2",
"8 	c #8FB4D4",
"9 	c #8EB3D4",
"0 	c #A0CBE7",
"a 	c #ACD9F2",
"b 	c #ABD8F1",
"c 	c #ACD8F1",
"d 	c #89C8EC",
"e 	c #6BBAE6",
"f 	c #66B7E3",
"g 	c #93CEEE",
"h 	c #3C77B1",
"i 	c #3E81B8",
"j 	c #357AB5",
"k 	c #94B9D8",
"l 	c #FFFFFF",
"m 	c #B2DCF3",
"n 	c #6CBBE7",
"o 	c #91CDEE",
"p 	c #4079B3",
"q 	c #4487BD",
"r 	c #3B81B9",
"s 	c #93B9D9",
"t 	c #B3DDF4",
"u 	c #74C0E9",
"v 	c #72BEE7",
"w 	c #93CFEF",
"x 	c #286CAD",
"y 	c #327FBA",
"z 	c #337FB9",
"A 	c #90B9DA",
"B 	c #B2DDF4",
"C 	c #6EBDE9",
"D 	c #65B9E6",
"E 	c #81C7EC",
"F 	c #1867AD",
"G 	c #146EB1",
"H 	c #7CAED4",
"I 	c #A4D7F2",
"J 	c #54B3E5",
"K 	c #4FAEE2",
"L 	c #6DBDE9",
"M 	c #2174B8",
"N 	c #1974B6",
"O 	c #1370B4",
"P 	c #7DB1D6",
"Q 	c #A2D6F2",
"R 	c #53B1E4",
"S 	c #50AEE2",
"T 	c #68BBE8",
"U 	c #257CBE",
"V 	c #1C7CBD",
"W 	c #1474B8",
"X 	c #83B6DA",
"Y 	c #A2D5F1",
"Z 	c #4EAEE3",
"` 	c #4DACE1",
" .	c #5FB6E5",
"..	c #257BBE",
"+.	c #2087C6",
"@.	c #4C99CD",
"#.	c #84BADD",
"$.	c #87BCDF",
"%.	c #89BDE0",
"&.	c #91C5E6",
"*.	c #9CD2F0",
"=.	c #9CD2EF",
"-.	c #71BEE8",
";.	c #4DADE1",
">.	c #49A9DF",
",.	c #52AFE2",
"'.	c #218CCB",
").	c #2181C1",
"!.	c #2284C3",
"~.	c #2184C4",
"{.	c #2788C7",
"].	c #2C8CCA",
"^.	c #3494D0",
"/.	c #45A9E0",
"(.	c #46A9E0",
"_.	c #4AABE1",
":.	c #4BABE0",
"<.	c #45A8DE",
"[.	c #1B70B4",
"}.	c #1878BA",
"|.	c #1C79BB",
"1.	c #207BBB",
"2.	c #247DBD",
"3.	c #2780BE",
"4.	c #2B83C1",
"5.	c #338EC9",
"6.	c #348ECA",
"7.	c #338DC9",
"8.	c #318DC9",
"9.	c #2E8BC8",
"0.	c #2D8CC9",
"a.	c #1169AC",
"b.	c #1365AA",
"c.	c #1468AC",
"d.	c #166AAD",
"e.	c #186CAE",
"f.	c #1A6CAF",
"g.	c #1C6FB1",
"h.	c #1A6DB0",
"i.	c #196DAF",
"j.	c #186CAF",
"  . . . . . . . . . + + + @ #   ",
". . $ % & * = - ; > > , ' ) # # ",
". ! $ % & * = ~ { ] ^ / ( _ : # ",
". ! $ % & * = < [ } | 1 2 3 : # ",
". 4 5 6 7 8 9 0 a b c d e f g # ",
". h i j k l l l l l l m n e o # ",
". p q r s l l l l l l t u v w # ",
". x y z A l l l l l l B C D E # ",
". F G @ H l l l l l l I J K L # ",
". M N O P l l l l l l Q R S T # ",
". U V W X l l l l l l Y Z `  .# ",
". ..+.V @.#.$.%.&.*.=.-.;.>.,.# ",
". + '.).!.~.{.].^./.(._.:.<./.# ",
". [.[.}.|.1.2.3.4.5.6.7.8.9.0.a.",
". . [.}.|.1.2.3.4.5.6.7.8.9.0.a.",
"  b.c.d.e.f.# g.h.i.j.a.i.j.a.  "};
